<?xml version="1.0" encoding="UTF-8"?>
<!DOCTYPE svg PUBLIC "-//W3C//DTD SVG 1.1//EN" "http://www.w3.org/Graphics/SVG/1.1/DTD/svg11.dtd">
<!-- Creator: CorelDRAW 2021 (64-Bit) -->
<svg xmlns="http://www.w3.org/2000/svg" xml:space="preserve" width="55.3093mm" height="9.7539mm" version="1.1" style="shape-rendering:geometricPrecision; text-rendering:geometricPrecision; image-rendering:optimizeQuality; fill-rule:evenodd; clip-rule:evenodd"
viewBox="0 0 369.04 65.08"
 xmlns:xlink="http://www.w3.org/1999/xlink"
 xmlns:xodm="http://www.corel.com/coreldraw/odm/2003">
 <defs>
  <style type="text/css">
   <![CDATA[
    .fil2 {fill:none}
    .fil6 {fill:#00447B}
    .fil5 {fill:#0079C2}
    .fil0 {fill:#1DC677}
    .fil3 {fill:#3C95D2}
    .fil4 {fill:white}
    .fil1 {fill:white}
   ]]>
  </style>
   <clipPath id="id0">
    <path d="M9.41 0l100.36 0c5.18,0 9.41,4.23 9.41,9.41l0 46.26c0,5.18 -4.23,9.41 -9.41,9.41l-100.36 0c-5.18,0 -9.41,-4.23 -9.41,-9.41l0 -46.26c0,-5.18 4.23,-9.41 9.41,-9.41z"/>
   </clipPath>
   <clipPath id="id1">
    <path d="M134.76 0l100.36 0c5.18,0 9.41,4.23 9.41,9.41l0 46.26c0,5.18 -4.23,9.41 -9.41,9.41l-100.36 0c-5.18,0 -9.41,-4.23 -9.41,-9.41l0 -46.26c0,-5.18 4.23,-9.41 9.41,-9.41z"/>
   </clipPath>
   <clipPath id="id2">
    <path d="M259.28 0l100.36 0c5.18,0 9.41,4.23 9.41,9.41l0 46.26c0,5.18 -4.23,9.41 -9.41,9.41l-100.36 0c-5.18,0 -9.41,-4.23 -9.41,-9.41l0 -46.26c0,-5.18 4.23,-9.41 9.41,-9.41z"/>
   </clipPath>
    <clipPath id="id3">
    </clipPath>
    <clipPath id="id4">
     <path d="M259.28 0l100.36 0c5.18,0 9.41,4.23 9.41,9.41l0 46.26c0,5.18 -4.23,9.41 -9.41,9.41l-100.36 0c-5.18,0 -9.41,-4.23 -9.41,-9.41l0 -46.26c0,-5.18 4.23,-9.41 9.41,-9.41z"/>
    </clipPath>
 </defs>
 <g id="Layer_x0020_1">
  <metadata id="CorelCorpID_0Corel-Layer"/>
  <path class="fil0" d="M9.41 0l100.36 0c5.18,0 9.41,4.23 9.41,9.41l0 46.26c0,5.18 -4.23,9.41 -9.41,9.41l-100.36 0c-5.18,0 -9.41,-4.23 -9.41,-9.41l0 -46.26c0,-5.18 4.23,-9.41 9.41,-9.41z"/>
  <g style="clip-path:url(#id0)">
   <g id="_1661447597072">
    <path id="_1" class="fil1" d="M67.3 34.89c0,-0.7 0.15,-1.17 0.37,-1.77 0.05,-0.14 0.11,-0.23 0.17,-0.36 0.11,-0.25 0.62,-1.01 0.63,-1.01 0.09,0.05 0.06,0.03 0.13,0.11 0.23,0.28 0.54,0.83 0.68,1.17 0.41,0.97 0.55,2.33 0.14,3.34 -0.32,0.78 -1.09,0.91 -1.55,0.47 -0.06,-0.06 -0.14,-0.16 -0.19,-0.24 -0.06,-0.09 -0.1,-0.18 -0.14,-0.29 -0.14,-0.37 -0.24,-0.92 -0.24,-1.43zm-16.32 -13.28c0,0.96 0.62,1.9 1.45,2.27 1.27,0.57 2.69,0.04 3.28,-1.15 0.37,-0.74 0.34,-1.66 -0.08,-2.37l-0.24 -0.34c-0.23,-0.26 -0.48,-0.49 -0.81,-0.64 -0.57,-0.25 -0.67,-0.25 -1.25,-0.25 -0.64,0 -1.24,0.35 -1.64,0.76 -0.21,0.21 -0.35,0.44 -0.49,0.73 -0.12,0.27 -0.22,0.69 -0.22,0.99zm0.37 4.78l0 16.64c0,0.06 0.02,0.08 0.08,0.08l4.09 0 0 -16.79 -4.09 0c-0.06,0 -0.08,0.02 -0.08,0.08zm-34.3 8.05c0,1.34 0.08,2.08 0.48,3.3 0.33,1 0.79,1.77 1.43,2.58 0.46,0.59 1.23,1.23 1.86,1.63 0.11,0.07 0.22,0.14 0.33,0.2 0.72,0.38 0.75,0.37 1.48,0.66 0.13,0.05 0.26,0.09 0.4,0.13 1.76,0.51 3.8,0.55 5.54,0.07 0.14,-0.04 0.27,-0.07 0.39,-0.11 0.78,-0.26 1.04,-0.34 1.81,-0.75 0.42,-0.22 0.58,-0.35 0.94,-0.59 0.09,-0.06 0.21,-0.19 0.31,-0.22l0 -4.01c-0.09,0.02 -0.2,0.13 -0.28,0.2 -0.1,0.08 -0.18,0.13 -0.27,0.2 -0.26,0.2 -0.86,0.58 -1.18,0.75 -1.11,0.56 -2.47,1.07 -3.76,1.07 -1,0 -1.58,-0.06 -2.45,-0.43 -1.99,-0.86 -2.86,-2.64 -2.86,-4.75 0,-1.08 0.41,-2.31 1.1,-3.1l0.26 -0.29c0.07,-0.06 0.09,-0.06 0.16,-0.13 0.25,-0.25 0.7,-0.52 1.02,-0.67 1.62,-0.75 3.14,-0.41 4.75,0.07 0.72,0.21 1.63,0.45 2.53,0.45l0.9 -0.05c0.1,-0.01 0.21,-0.01 0.21,-0.11l0 -3.67c0,-0.1 -0.14,-0.07 -0.39,-0.05 -1.29,0.1 -2.18,-0.13 -3.38,-0.37 -0.5,-0.1 -1.19,-0.24 -1.72,-0.29 -0.82,-0.08 -1.23,-0.09 -2.11,-0.02 -0.92,0.08 -1.7,0.31 -2.53,0.64 -0.31,0.12 -0.45,0.21 -0.71,0.34 -0.44,0.22 -1.05,0.64 -1.42,0.96 -0.05,0.05 -0.08,0.09 -0.13,0.13 -0.45,0.38 -0.76,0.78 -1.11,1.24 -0.18,0.24 -0.35,0.55 -0.51,0.81 -0.65,1.09 -1.09,2.91 -1.09,4.19zm72.19 -1.58c-1.79,0 -2.07,0.03 -3.79,-0.3 -0.12,-0.02 -0.24,-0.07 -0.35,-0.07 0.05,-0.1 0.08,-0.2 0.12,-0.33 0.04,-0.14 0.07,-0.2 0.13,-0.32 0.65,-1.56 2.11,-2.49 3.95,-2.49 0.97,0 2.04,0.16 2.53,0.96 0.46,0.76 0.28,1.83 -0.65,2.21 -0.57,0.24 -1.27,0.34 -1.93,0.34zm-8.58 1.66c0,1.37 0.06,2.14 0.49,3.42 0.27,0.81 0.91,1.96 1.49,2.55 0.05,0.06 0.1,0.09 0.14,0.15l0.55 0.54c0.33,0.27 0.55,0.45 0.92,0.69 0.12,0.08 0.22,0.14 0.35,0.21 1.19,0.61 1.75,0.85 3.22,1.11 0.78,0.13 1.64,0.18 2.45,0.13 0.18,-0.01 0.33,0 0.48,-0.02 0.31,-0.04 0.51,-0.04 0.91,-0.1 0.62,-0.1 1.09,-0.21 1.64,-0.36 0.37,-0.1 1.1,-0.38 1.43,-0.55 0.22,-0.11 0.43,-0.22 0.65,-0.35l0.62 -0.39 0 -3.99 -1.11 0.81c-0.53,0.35 -1.34,0.73 -1.95,0.93l-0.77 0.21c-1.42,0.28 -2.9,0.31 -4.31,-0.08 -0.63,-0.18 -1.52,-0.55 -1.95,-0.98 -0.12,-0.12 -0.19,-0.15 -0.3,-0.28l-0.26 -0.32c-0.08,-0.11 -0.16,-0.23 -0.22,-0.36 -0.35,-0.69 -0.41,-1.13 -0.41,-1.94 0.14,0.01 0.35,0.11 0.51,0.15 0.63,0.16 0.99,0.25 1.68,0.35 1.73,0.24 3.59,0.31 5.29,-0.12 0.38,-0.09 0.66,-0.21 1.01,-0.36 0.58,-0.25 1.22,-0.68 1.64,-1.13 0.47,-0.51 0.79,-1.09 1.01,-1.76 0.45,-1.35 0.12,-2.99 -0.65,-4.11 -0.23,-0.34 -0.39,-0.5 -0.69,-0.79l-0.2 -0.17c-0.07,-0.06 -0.14,-0.11 -0.21,-0.16 -1.02,-0.69 -1.92,-1.04 -3.19,-1.25 -2.03,-0.33 -4.09,0.04 -5.76,0.88 -0.87,0.43 -1.51,0.94 -2.18,1.62l-0.51 0.58c-0.08,0.11 -0.16,0.21 -0.24,0.31 -0.14,0.19 -0.31,0.45 -0.42,0.66 -0.5,0.98 -0.63,1.22 -0.91,2.33 -0.13,0.53 -0.25,1.31 -0.25,1.94zm-46.26 8.58l3.96 0c0.12,0 0.08,-0.16 0.08,-0.29l0 -5.7c0,-2.02 0,-4.05 0,-6.07l0.96 -0.42c1.62,-0.65 3.91,-1.28 5.07,0.48 0.38,0.58 0.49,1.33 0.49,2.28l0 9.72 3.96 0c0.06,0 0.08,-0.02 0.08,-0.08l-0.03 -10.8c0,-0.36 -0.13,-1.41 -0.21,-1.74 -0.05,-0.22 -0.09,-0.4 -0.15,-0.62 -0.24,-0.84 -0.76,-1.95 -1.43,-2.51 -0.28,-0.23 -0.26,-0.28 -0.67,-0.52 -1.56,-0.93 -3.3,-0.86 -5.03,-0.46 -0.87,0.2 -1.67,0.48 -2.47,0.83 -0.1,0.05 -0.19,0.08 -0.29,0.13 -0.09,0.04 -0.19,0.11 -0.29,0.13l0 -8c0,-0.25 0.05,-0.48 -0.08,-0.48l-3.96 0 0 24.11zm23.5 -10.69l0 10.69 4.04 0 0 -10.25c0,-1.09 0.3,-2.07 1.13,-2.59 0.61,-0.38 1.31,-0.36 1.94,-0.05 0.2,0.09 0.54,0.34 0.65,0.51l-0.51 0.84 -0.42 0.93c-0.24,0.66 -0.47,1.41 -0.47,2.3 0,2.65 1.17,5.39 4.15,5.39 0.64,0 1.19,-0.1 1.68,-0.3 1.34,-0.56 2.09,-1.91 2.38,-3.27 0.38,-1.79 0.23,-3.11 -0.5,-4.69l-0.25 -0.47c-0.17,-0.32 -0.26,-0.44 -0.46,-0.73l0.3 -0.28c0.11,-0.08 0.24,-0.17 0.36,-0.22 0.91,-0.45 1.92,-0.22 2.48,0.53 0.49,0.66 0.61,1.37 0.61,2.4l0 9.96 4.15 0 0 -10.98c0,-0.91 -0.17,-1.78 -0.39,-2.46 -0.24,-0.71 -0.66,-1.49 -1.2,-2.02l-0.59 -0.5c-0.33,-0.23 -0.54,-0.37 -0.92,-0.53 -1.32,-0.57 -2.64,-0.65 -4.05,-0.32 -0.64,0.15 -1.4,0.5 -1.95,0.87 -0.24,0.16 -0.83,0.61 -1.06,0.84 -0.13,0.13 -0.35,0.38 -0.48,0.47 -0.08,-0.12 -0.33,-0.35 -0.46,-0.47 -0.04,-0.04 -0.07,-0.08 -0.12,-0.12l-0.39 -0.33c-1.24,-0.98 -2.53,-1.46 -4.19,-1.46 -1.61,0 -2.54,0.1 -3.68,0.99 -0.94,0.73 -1.46,2.15 -1.64,3.32 -0.08,0.49 -0.1,0.81 -0.12,1.31 -0,0.14 -0.03,0.16 -0.03,0.32 0,0.12 0,0.25 0,0.37z"/>
   </g>
  </g>
  <path class="fil2" d="M9.41 0l100.36 0c5.18,0 9.41,4.23 9.41,9.41l0 46.26c0,5.18 -4.23,9.41 -9.41,9.41l-100.36 0c-5.18,0 -9.41,-4.23 -9.41,-9.41l0 -46.26c0,-5.18 4.23,-9.41 9.41,-9.41z"/>
  <path class="fil3" d="M134.76 0l100.36 0c5.18,0 9.41,4.23 9.41,9.41l0 46.26c0,5.18 -4.23,9.41 -9.41,9.41l-100.36 0c-5.18,0 -9.41,-4.23 -9.41,-9.41l0 -46.26c0,-5.18 4.23,-9.41 9.41,-9.41z"/>
  <g style="clip-path:url(#id1)">
   <g id="_1661447596688">
    <path id="_1_0" class="fil4" d="M194.95 26.09l-0.19 -1.01 -4.5 -0.02 -2.35 15.15 5.27 0.02c0.1,-0.88 0.28,-1.82 0.41,-2.7 0.14,-0.91 0.28,-1.81 0.42,-2.71 0.14,-0.89 0.27,-1.79 0.42,-2.7 0.01,-0.07 0.37,-2.62 0.44,-2.69 0.21,-0.2 1.14,-0.49 1.53,-0.53 1.59,-0.17 1.18,1.23 1.01,2.27l-1.01 6.49c-0.07,0.42 -0.13,0.86 -0.2,1.28 -0.06,0.37 -0.18,0.95 -0.19,1.31l5.18 0.01c0.08,-0.02 0.06,-0.12 0.09,-0.29l1.2 -7.8c0.14,-0.89 0.31,-1.84 0.42,-2.72 0.12,-0.04 0.24,-0.12 0.38,-0.18 0.13,-0.06 0.26,-0.11 0.41,-0.16 0.33,-0.11 0.64,-0.19 1.01,-0.19 1.29,0 0.88,1.38 0.73,2.35l-0.93 5.97c-0.15,1 -0.34,2.03 -0.47,3.04l5.24 0.02c0.08,-0.72 0.34,-2.18 0.46,-2.98l0.93 -5.97c0.22,-1.38 0.38,-2.04 0.38,-3.48 0,-2.13 -1.31,-3.26 -3.43,-3.26 -1.15,0 -2.02,0.09 -3.07,0.53 -0.62,0.26 -0.98,0.47 -1.5,0.81 -0.16,0.1 -0.32,0.23 -0.47,0.32 -0.19,-0.25 -0.2,-0.38 -0.52,-0.67 -0.23,-0.22 -0.39,-0.37 -0.7,-0.53 -1.38,-0.72 -3.17,-0.57 -4.56,0 -0.34,0.14 -0.67,0.29 -0.96,0.47l-0.87 0.56zm-42.99 -0.7c0.09,0.35 0.25,0.51 0.38,1.25 0.28,1.58 0.02,2.73 -0.47,4.21 -0.32,0.96 -1.01,2.49 -1.52,3.38 -0.19,0.34 -0.38,0.73 -0.6,1.04l-1.3 -10.55 -5.36 0.49c-0.02,0.18 1.71,10.46 1.82,11.14 0.11,0.63 0.2,1.23 0.31,1.86 0.1,0.59 0.25,1.31 0.31,1.89 1.68,0.04 3.63,0.02 5.36,0.02 0.89,0 0.66,0.19 1.22,-0.57 2.47,-3.39 6.67,-9.59 5.3,-13.91 -0.24,-0.76 -0.39,-0.84 -0.55,-1.24 -0.37,0.04 -0.85,0.16 -1.23,0.24 -0.41,0.08 -0.82,0.17 -1.23,0.25 -0.35,0.07 -2.26,0.42 -2.44,0.51zm18.39 9.63c-0.23,0.07 -0.61,0.29 -0.87,0.41 -0.97,0.42 -1.97,0.73 -3.06,0.79 -0.84,0.05 -1.58,-0.07 -2.05,-0.51 -0.4,-0.38 -0.73,-1.13 -0.67,-1.9 1.47,-0.12 1.95,-0.09 3.45,-0.51 1.83,-0.52 3.84,-1.66 4.29,-3.66 0.49,-2.18 -0.57,-4.21 -2.82,-4.9 -2.03,-0.62 -4.71,-0.12 -6.37,1.07 -2.49,1.77 -3.8,4.85 -3.82,8.14 -0.01,2.25 0.6,4.3 2.43,5.53 1.74,1.16 4.42,1.19 6.68,0.72 0.52,-0.11 1.58,-0.4 2.08,-0.66 0.11,-0.06 0.08,-0.02 0.11,-0.15 0.12,-0.64 0.28,-1.92 0.38,-2.61 0.08,-0.58 0.2,-1.18 0.25,-1.75zm-6.55 -4.06c1.13,0 3.7,-0.53 3.45,-2.08 -0.04,-0.25 -0.13,-0.39 -0.27,-0.53 -0.32,-0.32 -0.79,-0.36 -1.22,-0.22 -0.42,0.14 -0.73,0.39 -0.97,0.63 -0.5,0.51 -0.9,1.21 -1,2.2zm15.15 -4.97l-0.1 -0.94 -4.56 -0.02 -2.35 15.16 5.22 0.02c0.08,-0.07 0.08,-0.23 0.09,-0.35l1.59 -10.3c0,-0.02 0.01,-0.08 0.02,-0.1 0.07,-0.22 1.08,-0.51 1.35,-0.56 1.66,-0.3 1.45,0.78 1.26,2 -0.48,3.07 -1.01,6.26 -1.45,9.3l5.24 0.02c0.04,-0.52 0.35,-2.26 0.45,-2.92l0.91 -5.82c0.42,-2.72 1.3,-6.45 -2.41,-6.91 -1.01,-0.13 -2.08,0 -2.99,0.29 -0.66,0.21 -1.17,0.46 -1.74,0.8 -0.17,0.1 -0.38,0.26 -0.53,0.32zm33.44 7.72c0,1.16 0.03,2.12 0.39,3.25 0.3,0.95 0.7,1.66 1.4,2.33 0.98,0.95 2.49,1.4 3.87,1.4 1.57,0 2.75,-0.17 4.1,-0.83 1.99,-0.98 3.26,-2.75 3.99,-4.81 0.53,-1.5 0.66,-2.81 0.66,-4.41 0,-1.83 -0.62,-3.49 -1.56,-4.43 -1.03,-1.03 -2.5,-1.56 -4.49,-1.56 -1.87,0 -3.6,0.47 -5,1.53 -1.31,0.99 -2.17,2.28 -2.72,3.84 -0.38,1.06 -0.65,2.48 -0.65,3.7zm7.51 -4.97c-1.36,0.26 -1.88,2.18 -2.08,3.71 -0.17,1.37 -0.45,4.45 1.45,4.12 1.3,-0.22 1.82,-2.29 2.02,-3.76 0.18,-1.36 0.55,-4.45 -1.39,-4.08z"/>
   </g>
  </g>
  <path class="fil2" d="M134.76 0l100.36 0c5.18,0 9.41,4.23 9.41,9.41l0 46.26c0,5.18 -4.23,9.41 -9.41,9.41l-100.36 0c-5.18,0 -9.41,-4.23 -9.41,-9.41l0 -46.26c0,-5.18 4.23,-9.41 9.41,-9.41z"/>
  <g>
  </g>
  <g style="clip-path:url(#id2)">
   <g>
   </g>
   <g style="clip-path:url(#id3)">
    <image x="352.06" y="-89.04" width="59.08" height="19.89" xlink:href="payment_Images\payment_ImgID1.png"/>
   </g>
   <g style="clip-path:url(#id4)">
    <g id="_1661447536016">
     <path class="fil5" d="M316.38 29.79c-0.59,0 -1.47,0.15 -1.47,-0.62 0,-0.08 0.09,-0.44 0.12,-0.54 0.12,-0.49 0.51,-2.42 0.67,-2.66 0.41,-0.59 1.01,-0.48 1.73,-0.48 1,0 2.25,0.35 2.25,1.51 0,1.03 -0.25,1.64 -1.01,2.16 -0.52,0.35 -1.41,0.63 -2.28,0.63zm-6.2 7.51l1.86 0c0.43,0 0.76,-0.16 0.96,-0.4 0.28,-0.33 0.5,-1.63 0.61,-2.14 0.09,-0.4 0.17,-0.74 0.26,-1.14 0.24,-1.14 0.81,-1.06 1.69,-1.06 0.9,0 1.79,-0.1 2.56,-0.23 2.88,-0.48 5.57,-2.26 5.57,-5.58 0,-2.51 -1.66,-3.55 -3.75,-3.84 -1.68,-0.23 -4.64,-0.15 -6.43,-0.15 -0.36,0 -0.66,0.17 -0.84,0.36 -0.29,0.29 -0.48,1.33 -0.58,1.82l-1.58 6.9c-0.15,0.68 -0.29,1.31 -0.46,1.98 -0.08,0.33 -0.68,2.7 -0.61,2.96 0.09,0.32 0.33,0.5 0.74,0.5z"/>
     <path class="fil6" d="M277.97 29.75c-0.45,0 -1.24,0.11 -1.24,-0.62 0,-0.2 0.18,-0.85 0.23,-1.09 0.07,-0.34 0.41,-1.89 0.54,-2.1 0.38,-0.63 1.05,-0.49 1.87,-0.49 1.09,0 2.13,0.41 2.13,1.67 0,1.85 -1.64,2.63 -3.52,2.63zm-6.74 6.89c0,0.27 0.28,0.58 0.54,0.58l2.32 0c0.58,0 0.86,-0.52 0.98,-1 0.13,-0.51 0.24,-1.09 0.37,-1.6 0.4,-1.58 0.21,-2.12 1.83,-2.12 2.15,0 4.6,-0.34 6.24,-1.69 0.79,-0.65 1.33,-1.3 1.69,-2.26 0.35,-0.94 0.42,-2.43 0.03,-3.39 -0.84,-2.09 -3.37,-2.41 -5.53,-2.41l-4.49 0c-0.27,0 -0.61,0.2 -0.74,0.34 -0.19,0.21 -0.26,0.47 -0.33,0.79 -0.15,0.62 -0.27,1.19 -0.42,1.83l-0.84 3.65c-0.15,0.61 -0.26,1.2 -0.41,1.8 -0.16,0.65 -1.24,5.21 -1.24,5.5z"/>
     <path class="fil6" d="M297.41 26.73c0,0.45 0.03,0.41 0.1,0.83l0.59 3.39c0.09,0.45 0.14,0.92 0.23,1.36l0.69 4.07c0.08,0.57 0.17,0.91 0.17,1.54 0,0.38 -0.34,0.85 -0.53,1.17 -0.22,0.37 -0.41,0.71 -0.62,1.08 -0.18,0.33 -0.84,1.39 -0.91,1.65 -0.06,0.23 0.03,0.5 0.31,0.5l2.48 0c0.35,0 0.84,-0.37 1.02,-0.57 0.12,-0.14 0.22,-0.32 0.32,-0.49l8.06 -13.63c0.27,-0.45 0.52,-0.77 0.52,-1.27 0,-0.09 -0.1,-0.19 -0.19,-0.19l-2.75 0c-0.44,0 -0.99,0.43 -1.25,0.84l-0.79 1.34c-0.19,0.32 -0.34,0.6 -0.53,0.91l-1.82 3.13c-0.09,0.16 -0.15,0.35 -0.34,0.4 -0.22,-0.14 -0.17,-0.31 -0.25,-0.83l-0.47 -2.86c-0.11,-0.64 -0.21,-1.27 -0.31,-1.89 -0.06,-0.4 -0.13,-0.49 -0.36,-0.72 -0.18,-0.18 -0.47,-0.32 -0.8,-0.32l-1.9 0c-0.32,0 -0.66,0.23 -0.66,0.54z"/>
     <path class="fil6" d="M289.58 35.25c-0.73,0 -1.59,-0.16 -1.59,-0.89 0,-0.66 0.04,-0.88 0.47,-1.31 0.66,-0.66 2.89,-0.9 3.79,-0.9 0,0.42 -0.15,0.86 -0.25,1.26 -0.24,0.96 -0.12,1.06 -1.26,1.57 -0.31,0.14 -0.72,0.27 -1.16,0.27zm-2.67 -6.16c0.13,0 0.6,-0.18 0.74,-0.22 1.3,-0.36 3.13,-0.68 4.45,-0.21 0.48,0.17 0.73,0.47 0.73,1.05 0,0.49 -0.47,0.43 -1.2,0.47 -0.6,0.03 -2.33,0.27 -2.94,0.39 -2.13,0.43 -4.38,1.52 -4.38,4.02 0,0.93 0.14,1.6 0.88,2.26 1.15,1.02 3.24,0.84 4.54,0.26 0.28,-0.13 0.57,-0.28 0.82,-0.46 0.16,-0.11 0.66,-0.47 0.81,-0.51 -0,0.04 -0.34,1.12 0.58,1.12l1.86 0c0.35,0 0.72,-0.3 0.86,-0.53 0.18,-0.29 1.26,-5.18 1.36,-5.61 0.36,-1.7 1.07,-3.49 -0.99,-4.53 -1.14,-0.57 -2.76,-0.55 -4.13,-0.55 -0.83,0 -2.82,0.23 -3.34,0.49 -0.53,0.26 -0.6,0.69 -0.72,1.18 -0.06,0.25 -0.27,0.93 -0.2,1.16 0.04,0.12 0.13,0.23 0.28,0.23z"/>
     <path class="fil5" d="M327.92 35.25c-0.68,0 -1.57,-0 -1.71,-0.81 -0.11,-0.61 0.15,-1.17 0.63,-1.52 0.46,-0.33 0.97,-0.43 1.65,-0.56 0.41,-0.08 1.61,-0.22 1.99,-0.22 0,0.34 -0.39,2.02 -0.57,2.25 -0.32,0.4 -1.43,0.84 -1.98,0.84zm-3.1 -6.51c0,0.7 0.83,0.13 1.86,-0.07 1.09,-0.22 2.38,-0.39 3.49,-0.05 0.81,0.25 0.85,0.61 0.85,1.21 0,0.39 -0.48,0.28 -0.83,0.33l-1.1 0.1c-1.77,0.17 -4.26,0.58 -5.44,1.77 -0.46,0.47 -0.7,0.76 -0.93,1.43 -0.19,0.54 -0.28,1.47 -0.12,2.09 0.32,1.23 1.5,2.03 2.77,2.03 1.4,0 1.84,-0.07 3.06,-0.7 0.14,-0.07 0.25,-0.15 0.38,-0.24 0.16,-0.11 0.64,-0.46 0.78,-0.5 -0.06,0.24 -0.08,0.29 -0.08,0.58 0,0.29 0.32,0.54 0.62,0.54l1.9 0c0.28,0 0.61,-0.22 0.75,-0.38 0.2,-0.23 0.24,-0.49 0.32,-0.85 0.14,-0.64 0.31,-1.27 0.44,-1.88 0.27,-1.27 0.92,-3.66 1.06,-4.67 0.1,-0.72 0.09,-1.28 -0.25,-1.93 -0.76,-1.44 -3.27,-1.52 -4.98,-1.52 -0.91,0 -2.36,0.18 -3.23,0.37 -0.93,0.21 -0.97,0.86 -1.15,1.57 -0.05,0.21 -0.15,0.53 -0.15,0.77z"/>
     <path class="fil5" d="M335.51 37.27l2.05 0c0.27,0 0.59,-0.2 0.72,-0.36 0.21,-0.26 0.22,-0.4 0.31,-0.77 0.14,-0.61 0.27,-1.21 0.4,-1.81 0.49,-2.35 1.11,-4.83 1.59,-7.16 0.07,-0.35 0.78,-3.38 0.78,-3.64 0,-0.35 -0.3,-0.62 -0.66,-0.62l-1.94 0c-0.32,0 -0.61,0.21 -0.76,0.4 -0.31,0.36 -0.62,2.27 -0.74,2.79 -0.6,2.55 -1.11,5.12 -1.7,7.68 -0.15,0.67 -0.27,1.27 -0.43,1.94 -0.06,0.28 -0.19,0.7 -0.18,0.95 0,0.19 0.05,0.3 0.14,0.42 0.07,0.09 0.27,0.21 0.41,0.21z"/>
     <path class="fil5" d="M345.04 23.67l0 -0.19 -0.39 0 0 2.05 0.39 0 0 -1.47c0,-0.23 0.93,-0.56 0.93,0.04l0 1.43 0.39 0 0 -1.47c0,-0.14 0.4,-0.31 0.54,-0.31 0.43,0 0.39,0.31 0.39,0.74 -0,1.16 -0.11,1.05 0.39,1.05 0,-0.53 0.09,-1.57 -0.15,-1.9 -0.09,-0.12 -0.31,-0.23 -0.51,-0.23 -0.36,0 -0.56,0.2 -0.77,0.35 -0.08,-0.32 -0.52,-0.44 -0.92,-0.26 -0.15,0.07 -0.17,0.11 -0.28,0.18z"/>
     <path class="fil5" d="M343.18 22.98l0 0.5 -0.23 0 0 0.31 0.23 0c0,0.38 -0.06,1.28 0.11,1.55 0.23,0.36 0.75,0.2 0.97,0.19l0 -0.35c-0.84,0.19 -0.7,0.03 -0.7,-1.39l0.7 0 0 -0.31 -0.7 0c0,-0.69 0.06,-0.62 -0.27,-0.62 -0.09,0 -0.12,0.03 -0.12,0.12z"/>
    </g>
   </g>
  </g>
  <path class="fil2" d="M259.28 0l100.36 0c5.18,0 9.41,4.23 9.41,9.41l0 46.26c0,5.18 -4.23,9.41 -9.41,9.41l-100.36 0c-5.18,0 -9.41,-4.23 -9.41,-9.41l0 -46.26c0,-5.18 4.23,-9.41 9.41,-9.41z"/>
 </g>
</svg>
