<?xml version="1.0" encoding="UTF-8"?>
<!DOCTYPE svg PUBLIC "-//W3C//DTD SVG 1.1//EN" "http://www.w3.org/Graphics/SVG/1.1/DTD/svg11.dtd">
<!-- Creator: CorelDRAW 2021 (64-Bit) -->
<svg xmlns="http://www.w3.org/2000/svg" xml:space="preserve" width="42.5146mm" height="23.2172mm" version="1.1" style="shape-rendering:geometricPrecision; text-rendering:geometricPrecision; image-rendering:optimizeQuality; fill-rule:evenodd; clip-rule:evenodd"
viewBox="0 0 244.42 133.48"
 xmlns:xlink="http://www.w3.org/1999/xlink"
 xmlns:xodm="http://www.corel.com/coreldraw/odm/2003">
 <defs>
  <style type="text/css">
   <![CDATA[
    .fil2 {fill:none}
    .fil0 {fill:#3C95D2}
    .fil1 {fill:white}
   ]]>
  </style>
   <clipPath id="id0">
    <path d="M19.3 0l205.83 0c10.61,0 19.3,8.68 19.3,19.3l0 94.88c0,10.61 -8.68,19.3 -19.3,19.3l-205.83 0c-10.61,0 -19.3,-8.68 -19.3,-19.3l0 -94.88c0,-10.61 8.68,-19.3 19.3,-19.3z"/>
   </clipPath>
 </defs>
 <g id="Layer_x0020_1">
  <metadata id="CorelCorpID_0Corel-Layer"/>
  <path class="fil0" d="M19.3 0l205.83 0c10.61,0 19.3,8.68 19.3,19.3l0 94.88c0,10.61 -8.68,19.3 -19.3,19.3l-205.83 0c-10.61,0 -19.3,-8.68 -19.3,-19.3l0 -94.88c0,-10.61 8.68,-19.3 19.3,-19.3z"/>
  <g style="clip-path:url(#id0)">
   <g id="_1661011804576">
    <path id="_1" class="fil1" d="M142.73 53.51l-0.38 -2.07 -9.23 -0.03 -4.83 31.08 10.8 0.05c0.2,-1.8 0.57,-3.74 0.85,-5.54 0.29,-1.87 0.57,-3.71 0.86,-5.57 0.28,-1.83 0.56,-3.68 0.85,-5.53 0.02,-0.13 0.76,-5.37 0.9,-5.52 0.43,-0.4 2.34,-1 3.13,-1.08 3.27,-0.35 2.41,2.52 2.07,4.65l-2.07 13.31c-0.14,0.87 -0.27,1.75 -0.41,2.63 -0.12,0.75 -0.37,1.95 -0.4,2.68l10.63 0.03c0.16,-0.05 0.13,-0.25 0.18,-0.6l2.47 -16c0.29,-1.83 0.64,-3.76 0.86,-5.59 0.25,-0.08 0.49,-0.24 0.78,-0.37 0.27,-0.12 0.54,-0.23 0.84,-0.34 0.67,-0.24 1.32,-0.38 2.07,-0.38 2.65,0 1.8,2.82 1.49,4.82l-1.9 12.24c-0.31,2.05 -0.7,4.15 -0.96,6.23l10.74 0.03c0.16,-1.48 0.69,-4.46 0.95,-6.11l1.92 -12.24c0.45,-2.83 0.77,-4.18 0.77,-7.13 0,-4.37 -2.68,-6.69 -7.04,-6.69 -2.37,0 -4.13,0.19 -6.3,1.1 -1.28,0.53 -2,0.96 -3.08,1.65 -0.34,0.22 -0.65,0.48 -0.96,0.65 -0.39,-0.52 -0.42,-0.78 -1.06,-1.38 -0.48,-0.45 -0.79,-0.75 -1.43,-1.08 -2.82,-1.48 -6.5,-1.17 -9.36,0 -0.7,0.29 -1.37,0.61 -1.96,0.96l-1.79 1.15zm-88.17 -1.44c0.18,0.71 0.52,1.05 0.78,2.56 0.57,3.24 0.05,5.59 -0.96,8.64 -0.65,1.97 -2.08,5.11 -3.12,6.93 -0.4,0.7 -0.79,1.5 -1.23,2.12l-2.68 -21.64 -10.99 0.99c-0.05,0.37 3.5,21.45 3.74,22.86 0.22,1.28 0.42,2.52 0.63,3.82 0.2,1.2 0.52,2.69 0.63,3.88 3.46,0.08 7.44,0.03 10.99,0.03 1.82,0 1.35,0.4 2.49,-1.17 5.07,-6.95 13.68,-19.67 10.87,-28.54 -0.49,-1.56 -0.8,-1.73 -1.12,-2.54 -0.76,0.08 -1.74,0.34 -2.52,0.49 -0.84,0.17 -1.69,0.34 -2.53,0.51 -0.72,0.14 -4.64,0.85 -4.99,1.05zm37.72 19.76c-0.47,0.15 -1.25,0.6 -1.79,0.84 -1.98,0.86 -4.04,1.49 -6.28,1.61 -1.73,0.1 -3.24,-0.14 -4.21,-1.05 -0.83,-0.78 -1.5,-2.32 -1.37,-3.89 3.01,-0.25 4,-0.18 7.07,-1.05 3.75,-1.06 7.87,-3.4 8.8,-7.51 1.01,-4.46 -1.16,-8.63 -5.79,-10.06 -4.16,-1.28 -9.66,-0.24 -13.06,2.19 -5.11,3.64 -7.79,9.95 -7.83,16.69 -0.02,4.62 1.23,8.82 4.99,11.34 3.56,2.39 9.07,2.44 13.71,1.48 1.07,-0.22 3.25,-0.82 4.26,-1.35 0.22,-0.12 0.17,-0.04 0.22,-0.3 0.24,-1.31 0.57,-3.94 0.77,-5.36 0.17,-1.18 0.4,-2.41 0.52,-3.58zm-13.44 -8.34c2.32,0 7.6,-1.09 7.08,-4.26 -0.08,-0.51 -0.27,-0.81 -0.55,-1.09 -0.65,-0.65 -1.62,-0.73 -2.49,-0.45 -0.86,0.28 -1.51,0.8 -1.99,1.29 -1.03,1.04 -1.85,2.47 -2.05,4.51zm31.07 -10.2l-0.21 -1.93 -9.35 -0.05 -4.83 31.09 10.71 0.04c0.17,-0.15 0.16,-0.48 0.19,-0.71l3.26 -21.13c0.01,-0.04 0.02,-0.16 0.03,-0.2 0.14,-0.45 2.21,-1.04 2.77,-1.14 3.4,-0.62 2.97,1.61 2.58,4.11 -0.98,6.29 -2.07,12.84 -2.97,19.08l10.75 0.05c0.09,-1.07 0.72,-4.63 0.92,-5.99l1.87 -11.93c0.87,-5.58 2.68,-13.23 -4.94,-14.18 -2.07,-0.26 -4.27,0 -6.14,0.59 -1.36,0.43 -2.4,0.95 -3.56,1.64 -0.34,0.2 -0.79,0.53 -1.09,0.66zm68.58 15.84c0,2.38 0.06,4.34 0.8,6.67 0.62,1.94 1.43,3.4 2.87,4.79 2.01,1.94 5.1,2.86 7.95,2.86 3.22,0 5.64,-0.34 8.4,-1.71 4.08,-2.02 6.69,-5.64 8.19,-9.87 1.09,-3.07 1.35,-5.77 1.35,-9.05 0,-3.75 -1.28,-7.17 -3.19,-9.08 -2.11,-2.11 -5.12,-3.21 -9.2,-3.21 -3.83,0 -7.38,0.95 -10.27,3.13 -2.68,2.02 -4.44,4.68 -5.57,7.87 -0.77,2.17 -1.33,5.09 -1.33,7.6zm15.41 -10.19c-2.8,0.53 -3.86,4.48 -4.26,7.62 -0.36,2.81 -0.92,9.13 2.96,8.46 2.66,-0.46 3.73,-4.69 4.14,-7.71 0.38,-2.79 1.12,-9.12 -2.84,-8.36z"/>
   </g>
  </g>
  <path class="fil2" d="M19.3 0l205.83 0c10.61,0 19.3,8.68 19.3,19.3l0 94.88c0,10.61 -8.68,19.3 -19.3,19.3l-205.83 0c-10.61,0 -19.3,-8.68 -19.3,-19.3l0 -94.88c0,-10.61 8.68,-19.3 19.3,-19.3z"/>
 </g>
</svg>
