<?xml version="1.0" encoding="UTF-8"?>
<!DOCTYPE svg PUBLIC "-//W3C//DTD SVG 1.1//EN" "http://www.w3.org/Graphics/SVG/1.1/DTD/svg11.dtd">
<!-- Creator: CorelDRAW 2021 (64-Bit) -->
<svg xmlns="http://www.w3.org/2000/svg" xml:space="preserve" width="17.861mm" height="9.7539mm" version="1.1" style="shape-rendering:geometricPrecision; text-rendering:geometricPrecision; image-rendering:optimizeQuality; fill-rule:evenodd; clip-rule:evenodd"
viewBox="0 0 38.49 21.02"
 xmlns:xlink="http://www.w3.org/1999/xlink"
 xmlns:xodm="http://www.corel.com/coreldraw/odm/2003">
 <defs>
  <style type="text/css">
   <![CDATA[
    .fil2 {fill:none}
    .fil1 {fill:#1DC677}
    .fil0 {fill:white}
   ]]>
  </style>
   <clipPath id="id0">
    <path d="M3.04 0l32.41 0c1.67,0 3.04,1.37 3.04,3.04l0 14.94c0,1.67 -1.37,3.04 -3.04,3.04l-32.41 0c-1.67,0 -3.04,-1.37 -3.04,-3.04l0 -14.94c0,-1.67 1.37,-3.04 3.04,-3.04z"/>
   </clipPath>
 </defs>
 <g id="Layer_x0020_1">
  <metadata id="CorelCorpID_0Corel-Layer"/>
  <path class="fil0" d="M3.04 0l32.41 0c1.67,0 3.04,1.37 3.04,3.04l0 14.94c0,1.67 -1.37,3.04 -3.04,3.04l-32.41 0c-1.67,0 -3.04,-1.37 -3.04,-3.04l0 -14.94c0,-1.67 1.37,-3.04 3.04,-3.04z"/>
  <g style="clip-path:url(#id0)">
   <g id="_1661018188160">
    <path id="_1" class="fil1" d="M21.73 11.27c0,-0.22 0.05,-0.38 0.12,-0.57 0.02,-0.04 0.04,-0.07 0.05,-0.12 0.04,-0.08 0.2,-0.32 0.2,-0.33 0.03,0.02 0.02,0.01 0.04,0.04 0.08,0.09 0.17,0.27 0.22,0.38 0.13,0.31 0.18,0.75 0.05,1.08 -0.1,0.25 -0.35,0.29 -0.5,0.15 -0.02,-0.02 -0.04,-0.05 -0.06,-0.08 -0.02,-0.03 -0.03,-0.06 -0.04,-0.09 -0.05,-0.12 -0.08,-0.3 -0.08,-0.46zm-5.27 -4.29c0,0.31 0.2,0.61 0.47,0.73 0.41,0.18 0.87,0.01 1.06,-0.37 0.12,-0.24 0.11,-0.54 -0.03,-0.76l-0.08 -0.11c-0.07,-0.08 -0.16,-0.16 -0.26,-0.21 -0.18,-0.08 -0.22,-0.08 -0.4,-0.08 -0.21,0 -0.4,0.11 -0.53,0.25 -0.07,0.07 -0.11,0.14 -0.16,0.24 -0.04,0.09 -0.07,0.22 -0.07,0.32zm0.12 1.54l0 5.37c0,0.02 0.01,0.03 0.03,0.03l1.32 0 0 -5.42 -1.32 0c-0.02,0 -0.03,0.01 -0.03,0.03zm-11.08 2.6c0,0.43 0.02,0.67 0.15,1.06 0.11,0.32 0.26,0.57 0.46,0.83 0.15,0.19 0.4,0.4 0.6,0.53 0.03,0.02 0.07,0.04 0.11,0.06 0.23,0.12 0.24,0.12 0.48,0.21 0.04,0.02 0.08,0.03 0.13,0.04 0.57,0.16 1.23,0.18 1.79,0.02 0.05,-0.01 0.09,-0.02 0.13,-0.03 0.25,-0.08 0.34,-0.11 0.58,-0.24 0.13,-0.07 0.19,-0.11 0.3,-0.19 0.03,-0.02 0.07,-0.06 0.1,-0.07l0 -1.3c-0.03,0.01 -0.06,0.04 -0.09,0.06 -0.03,0.02 -0.06,0.04 -0.09,0.07 -0.09,0.06 -0.28,0.19 -0.38,0.24 -0.36,0.18 -0.8,0.35 -1.21,0.35 -0.32,0 -0.51,-0.02 -0.79,-0.14 -0.64,-0.28 -0.92,-0.85 -0.92,-1.53 0,-0.35 0.13,-0.75 0.36,-1l0.09 -0.09c0.02,-0.02 0.03,-0.02 0.05,-0.04 0.08,-0.08 0.22,-0.17 0.33,-0.22 0.52,-0.24 1.01,-0.13 1.53,0.02 0.23,0.07 0.53,0.15 0.82,0.15l0.29 -0.02c0.03,-0 0.07,-0 0.07,-0.03l0 -1.19c0,-0.03 -0.04,-0.02 -0.13,-0.02 -0.42,0.03 -0.7,-0.04 -1.09,-0.12 -0.16,-0.03 -0.38,-0.08 -0.55,-0.09 -0.27,-0.03 -0.4,-0.03 -0.68,-0.01 -0.3,0.02 -0.55,0.1 -0.82,0.21 -0.1,0.04 -0.15,0.07 -0.23,0.11 -0.14,0.07 -0.34,0.21 -0.46,0.31 -0.02,0.02 -0.03,0.03 -0.04,0.04 -0.15,0.12 -0.25,0.25 -0.36,0.4 -0.06,0.08 -0.11,0.18 -0.16,0.26 -0.21,0.35 -0.35,0.94 -0.35,1.35zm23.31 -0.51c-0.58,0 -0.67,0.01 -1.22,-0.1 -0.04,-0.01 -0.08,-0.02 -0.11,-0.02 0.02,-0.03 0.03,-0.07 0.04,-0.11 0.01,-0.04 0.02,-0.06 0.04,-0.1 0.21,-0.51 0.68,-0.81 1.28,-0.81 0.31,0 0.66,0.05 0.82,0.31 0.15,0.25 0.09,0.59 -0.21,0.72 -0.18,0.08 -0.41,0.11 -0.62,0.11zm-2.77 0.54c0,0.44 0.02,0.69 0.16,1.1 0.09,0.26 0.29,0.63 0.48,0.82 0.02,0.02 0.03,0.03 0.05,0.05l0.18 0.17c0.11,0.09 0.18,0.15 0.3,0.22 0.04,0.02 0.07,0.05 0.11,0.07 0.38,0.2 0.57,0.28 1.04,0.36 0.25,0.04 0.53,0.06 0.79,0.04 0.06,-0 0.11,0 0.16,-0.01 0.1,-0.01 0.16,-0.01 0.29,-0.03 0.2,-0.03 0.35,-0.07 0.53,-0.12 0.12,-0.03 0.35,-0.12 0.46,-0.18 0.07,-0.04 0.14,-0.07 0.21,-0.11l0.2 -0.13 0 -1.29 -0.36 0.26c-0.17,0.11 -0.43,0.24 -0.63,0.3l-0.25 0.07c-0.46,0.09 -0.94,0.1 -1.39,-0.03 -0.2,-0.06 -0.49,-0.18 -0.63,-0.32 -0.04,-0.04 -0.06,-0.05 -0.1,-0.09l-0.08 -0.1c-0.03,-0.04 -0.05,-0.07 -0.07,-0.12 -0.11,-0.22 -0.13,-0.37 -0.13,-0.63 0.04,0 0.11,0.03 0.17,0.05 0.2,0.05 0.32,0.08 0.54,0.11 0.56,0.08 1.16,0.1 1.71,-0.04 0.12,-0.03 0.21,-0.07 0.33,-0.12 0.19,-0.08 0.39,-0.22 0.53,-0.37 0.15,-0.17 0.25,-0.35 0.33,-0.57 0.15,-0.43 0.04,-0.96 -0.21,-1.33 -0.07,-0.11 -0.13,-0.16 -0.22,-0.25l-0.06 -0.05c-0.02,-0.02 -0.04,-0.04 -0.07,-0.05 -0.33,-0.22 -0.62,-0.34 -1.03,-0.4 -0.65,-0.11 -1.32,0.01 -1.86,0.28 -0.28,0.14 -0.49,0.31 -0.71,0.52l-0.16 0.19c-0.03,0.03 -0.05,0.07 -0.08,0.1 -0.04,0.06 -0.1,0.15 -0.14,0.21 -0.16,0.32 -0.2,0.39 -0.29,0.75 -0.04,0.17 -0.08,0.42 -0.08,0.63zm-14.94 2.77l1.28 0c0.04,0 0.03,-0.05 0.03,-0.09l0 -1.84c0,-0.65 0,-1.31 0,-1.96l0.31 -0.13c0.52,-0.21 1.26,-0.41 1.64,0.16 0.12,0.19 0.16,0.43 0.16,0.74l0 3.14 1.28 0c0.02,0 0.03,-0.01 0.03,-0.03l-0.01 -3.49c0,-0.12 -0.04,-0.46 -0.07,-0.56 -0.02,-0.07 -0.03,-0.13 -0.05,-0.2 -0.08,-0.27 -0.24,-0.63 -0.46,-0.81 -0.09,-0.07 -0.08,-0.09 -0.22,-0.17 -0.5,-0.3 -1.06,-0.28 -1.63,-0.15 -0.28,0.06 -0.54,0.15 -0.8,0.27 -0.03,0.02 -0.06,0.03 -0.09,0.04 -0.03,0.01 -0.06,0.04 -0.09,0.04l0 -2.58c0,-0.08 0.02,-0.15 -0.03,-0.15l-1.28 0 0 7.79zm7.59 -3.45l0 3.45 1.3 0 0 -3.31c0,-0.35 0.1,-0.67 0.36,-0.84 0.2,-0.12 0.42,-0.12 0.63,-0.02 0.06,0.03 0.18,0.11 0.21,0.16l-0.16 0.27 -0.14 0.3c-0.08,0.21 -0.15,0.46 -0.15,0.74 0,0.86 0.38,1.74 1.34,1.74 0.21,0 0.39,-0.03 0.54,-0.1 0.43,-0.18 0.68,-0.62 0.77,-1.06 0.12,-0.58 0.07,-1 -0.16,-1.51l-0.08 -0.15c-0.06,-0.1 -0.08,-0.14 -0.15,-0.24l0.1 -0.09c0.03,-0.03 0.08,-0.05 0.12,-0.07 0.3,-0.14 0.62,-0.07 0.8,0.17 0.16,0.21 0.2,0.44 0.2,0.77l0 3.21 1.34 0 0 -3.55c0,-0.29 -0.05,-0.58 -0.13,-0.79 -0.08,-0.23 -0.21,-0.48 -0.39,-0.65l-0.19 -0.16c-0.11,-0.07 -0.17,-0.12 -0.3,-0.17 -0.43,-0.18 -0.85,-0.21 -1.31,-0.1 -0.21,0.05 -0.45,0.16 -0.63,0.28 -0.08,0.05 -0.27,0.2 -0.34,0.27 -0.04,0.04 -0.11,0.12 -0.16,0.15 -0.03,-0.04 -0.11,-0.11 -0.15,-0.15 -0.01,-0.01 -0.02,-0.03 -0.04,-0.04l-0.12 -0.11c-0.4,-0.32 -0.82,-0.47 -1.35,-0.47 -0.52,0 -0.82,0.03 -1.19,0.32 -0.3,0.24 -0.47,0.69 -0.53,1.07 -0.02,0.16 -0.03,0.26 -0.04,0.42 -0,0.04 -0.01,0.05 -0.01,0.1 0,0.04 0,0.08 0,0.12z"/>
   </g>
  </g>
  <path class="fil2" d="M3.04 0l32.41 0c1.67,0 3.04,1.37 3.04,3.04l0 14.94c0,1.67 -1.37,3.04 -3.04,3.04l-32.41 0c-1.67,0 -3.04,-1.37 -3.04,-3.04l0 -14.94c0,-1.67 1.37,-3.04 3.04,-3.04z"/>
 </g>
</svg>
