<?xml version="1.0" encoding="UTF-8"?>
<!DOCTYPE svg PUBLIC "-//W3C//DTD SVG 1.1//EN" "http://www.w3.org/Graphics/SVG/1.1/DTD/svg11.dtd">
<!-- Creator: CorelDRAW 2021 (64-Bit) -->
<svg xmlns="http://www.w3.org/2000/svg" xml:space="preserve" width="42.5146mm" height="23.2172mm" version="1.1" style="shape-rendering:geometricPrecision; text-rendering:geometricPrecision; image-rendering:optimizeQuality; fill-rule:evenodd; clip-rule:evenodd"
viewBox="0 0 277.8 151.7"
 xmlns:xlink="http://www.w3.org/1999/xlink"
 xmlns:xodm="http://www.corel.com/coreldraw/odm/2003">
 <defs>
  <style type="text/css">
   <![CDATA[
    .fil2 {fill:none}
    .fil1 {fill:#00447B}
    .fil0 {fill:#0079C2}
   ]]>
  </style>
   <clipPath id="id0">
    <path d="M21.93 0l233.93 0c12.06,0 21.93,9.87 21.93,21.93l0 107.84c0,12.06 -9.87,21.93 -21.93,21.93l-233.93 0c-12.06,0 -21.93,-9.87 -21.93,-21.93l0 -107.84c0,-12.06 9.87,-21.93 21.93,-21.93z"/>
   </clipPath>
    <clipPath id="id1">
    </clipPath>
    <clipPath id="id2">
     <path d="M21.93 0l233.93 0c12.06,0 21.93,9.87 21.93,21.93l0 107.84c0,12.06 -9.87,21.93 -21.93,21.93l-233.93 0c-12.06,0 -21.93,-9.87 -21.93,-21.93l0 -107.84c0,-12.06 9.87,-21.93 21.93,-21.93z"/>
    </clipPath>
 </defs>
 <g id="Layer_x0020_1">
  <metadata id="CorelCorpID_0Corel-Layer"/>
  <g>
  </g>
  <g style="clip-path:url(#id0)">
   <g>
   </g>
   <g style="clip-path:url(#id1)">
    <image x="238.21" y="-207.55" width="137.71" height="46.37" xlink:href="payment-paypal_Images\payment-paypal_ImgID1.png"/>
   </g>
   <g style="clip-path:url(#id2)">
    <g id="_1661356618352">
     <path class="fil0" d="M155.04 69.44c-1.38,0 -3.43,0.34 -3.43,-1.44 0,-0.19 0.21,-1.04 0.27,-1.27 0.28,-1.13 1.19,-5.63 1.57,-6.19 0.95,-1.38 2.36,-1.12 4.03,-1.12 2.33,0 5.24,0.82 5.24,3.52 0,2.39 -0.58,3.82 -2.36,5.04 -1.21,0.83 -3.29,1.46 -5.31,1.46zm-14.44 17.51l4.33 0c1,0 1.76,-0.37 2.23,-0.93 0.64,-0.77 1.17,-3.8 1.43,-4.98 0.21,-0.94 0.41,-1.72 0.6,-2.65 0.56,-2.66 1.89,-2.46 3.95,-2.46 2.11,0 4.18,-0.23 5.97,-0.53 6.7,-1.12 12.99,-5.28 12.99,-13.01 0,-5.86 -3.86,-8.27 -8.75,-8.94 -3.9,-0.54 -10.83,-0.36 -14.99,-0.36 -0.84,0 -1.53,0.4 -1.97,0.83 -0.69,0.68 -1.11,3.09 -1.35,4.25l-3.69 16.08c-0.36,1.58 -0.67,3.06 -1.06,4.62 -0.2,0.78 -1.58,6.31 -1.42,6.9 0.21,0.75 0.78,1.17 1.72,1.17z"/>
     <path class="fil1" d="M65.49 69.35c-1.06,0 -2.89,0.26 -2.89,-1.44 0,-0.47 0.42,-1.99 0.53,-2.53 0.16,-0.79 0.96,-4.42 1.25,-4.89 0.89,-1.47 2.46,-1.15 4.36,-1.15 2.54,0 4.96,0.97 4.96,3.88 0,4.32 -3.83,6.14 -8.21,6.14zm-15.71 16.07c0,0.64 0.64,1.35 1.26,1.35l5.42 0c1.35,0 2,-1.21 2.28,-2.33 0.3,-1.2 0.57,-2.54 0.87,-3.74 0.92,-3.68 0.49,-4.95 4.26,-4.95 5.01,0 10.71,-0.8 14.55,-3.95 1.85,-1.52 3.11,-3.03 3.94,-5.27 0.81,-2.19 0.98,-5.68 0.08,-7.91 -1.95,-4.86 -7.86,-5.62 -12.88,-5.62l-10.47 0c-0.63,0 -1.42,0.46 -1.73,0.8 -0.45,0.49 -0.61,1.1 -0.78,1.84 -0.34,1.45 -0.64,2.78 -0.98,4.26l-1.97 8.5c-0.36,1.42 -0.62,2.8 -0.96,4.19 -0.37,1.52 -2.89,12.14 -2.89,12.82z"/>
     <path class="fil1" d="M110.81 62.31c0,1.05 0.07,0.95 0.23,1.93l1.39 7.91c0.21,1.04 0.34,2.14 0.54,3.16l1.61 9.5c0.19,1.33 0.39,2.12 0.39,3.58 0,0.9 -0.79,1.99 -1.24,2.74 -0.51,0.86 -0.96,1.65 -1.44,2.53 -0.43,0.76 -1.96,3.23 -2.11,3.85 -0.13,0.53 0.08,1.17 0.73,1.17l5.78 0c0.81,0 1.95,-0.86 2.37,-1.33 0.28,-0.32 0.52,-0.76 0.75,-1.14l18.79 -31.76c0.62,-1.04 1.2,-1.79 1.2,-2.95 0,-0.21 -0.24,-0.45 -0.45,-0.45l-6.41 0c-1.02,0 -2.3,1 -2.91,1.97l-1.84 3.13c-0.44,0.74 -0.8,1.39 -1.23,2.11l-4.25 7.3c-0.21,0.38 -0.36,0.82 -0.78,0.93 -0.5,-0.34 -0.39,-0.71 -0.59,-1.93l-1.1 -6.67c-0.25,-1.5 -0.5,-2.96 -0.73,-4.41 -0.15,-0.94 -0.3,-1.13 -0.85,-1.68 -0.42,-0.41 -1.08,-0.74 -1.88,-0.74l-4.42 0c-0.75,0 -1.53,0.54 -1.53,1.26z"/>
     <path class="fil1" d="M92.57 82.17c-1.71,0 -3.7,-0.38 -3.7,-2.08 0,-1.54 0.09,-2.04 1.1,-3.05 1.54,-1.53 6.74,-2.1 8.83,-2.1 0,0.98 -0.35,2.01 -0.58,2.94 -0.56,2.25 -0.29,2.48 -2.94,3.65 -0.72,0.32 -1.68,0.63 -2.71,0.63zm-6.23 -14.35c0.31,0 1.39,-0.43 1.73,-0.52 3.02,-0.84 7.29,-1.6 10.37,-0.48 1.13,0.41 1.7,1.08 1.7,2.45 0,1.13 -1.1,1.01 -2.8,1.08 -1.4,0.06 -5.43,0.63 -6.85,0.91 -4.97,0.99 -10.21,3.54 -10.21,9.38 0,2.17 0.33,3.72 2.05,5.26 2.68,2.39 7.56,1.96 10.58,0.61 0.66,-0.3 1.32,-0.66 1.92,-1.06 0.37,-0.25 1.54,-1.1 1.88,-1.19 -0,0.1 -0.79,2.62 1.35,2.62l4.33 0c0.82,0 1.67,-0.71 2.01,-1.24 0.43,-0.67 2.95,-12.07 3.16,-13.09 0.83,-3.96 2.49,-8.15 -2.31,-10.56 -2.66,-1.34 -6.42,-1.29 -9.63,-1.29 -1.93,0 -6.58,0.55 -7.8,1.14 -1.23,0.6 -1.4,1.61 -1.68,2.74 -0.15,0.59 -0.64,2.17 -0.46,2.71 0.09,0.28 0.31,0.54 0.64,0.54z"/>
     <path class="fil0" d="M181.94 82.17c-1.59,0 -3.66,-0.01 -3.99,-1.88 -0.25,-1.43 0.36,-2.74 1.46,-3.54 1.07,-0.77 2.27,-1.01 3.84,-1.3 0.95,-0.18 3.74,-0.5 4.64,-0.5 0,0.8 -0.9,4.71 -1.34,5.25 -0.75,0.94 -3.34,1.97 -4.62,1.97zm-7.22 -15.17c0,1.62 1.94,0.31 4.34,-0.17 2.53,-0.5 5.56,-0.9 8.13,-0.11 1.88,0.58 1.97,1.42 1.97,2.81 0,0.91 -1.11,0.65 -1.93,0.77l-2.57 0.23c-4.12,0.39 -9.92,1.36 -12.67,4.12 -1.08,1.08 -1.64,1.77 -2.18,3.33 -0.44,1.26 -0.66,3.42 -0.29,4.87 0.74,2.87 3.5,4.73 6.46,4.73 3.26,0 4.29,-0.16 7.13,-1.62 0.32,-0.17 0.57,-0.35 0.88,-0.56 0.37,-0.25 1.48,-1.06 1.82,-1.16 -0.13,0.57 -0.18,0.68 -0.18,1.35 0,0.66 0.74,1.26 1.44,1.26l4.42 0c0.66,0 1.41,-0.5 1.74,-0.88 0.46,-0.53 0.56,-1.15 0.74,-1.97 0.32,-1.49 0.72,-2.97 1.02,-4.39 0.62,-2.95 2.13,-8.54 2.47,-10.9 0.24,-1.69 0.22,-2.99 -0.58,-4.49 -1.77,-3.35 -7.63,-3.55 -11.62,-3.55 -2.11,0 -5.51,0.41 -7.53,0.87 -2.17,0.49 -2.26,2 -2.67,3.65 -0.12,0.49 -0.36,1.23 -0.36,1.81z"/>
     <path class="fil0" d="M199.63 86.86l4.78 0c0.64,0 1.38,-0.47 1.68,-0.85 0.48,-0.61 0.52,-0.92 0.72,-1.81 0.32,-1.43 0.64,-2.83 0.93,-4.22 1.14,-5.48 2.58,-11.25 3.7,-16.7 0.17,-0.83 1.81,-7.88 1.81,-8.48 0,-0.81 -0.7,-1.44 -1.53,-1.44l-4.51 0c-0.74,0 -1.42,0.5 -1.78,0.93 -0.72,0.85 -1.44,5.29 -1.72,6.49 -1.39,5.95 -2.59,11.94 -3.95,17.89 -0.35,1.55 -0.64,2.96 -0.99,4.51 -0.15,0.65 -0.44,1.64 -0.43,2.21 0.01,0.45 0.12,0.71 0.34,0.97 0.17,0.21 0.63,0.48 0.96,0.48z"/>
     <path class="fil0" d="M221.84 55.18l0 -0.45 -0.9 0 0 4.78 0.9 0 0 -3.43c0,-0.54 2.17,-1.3 2.17,0.09l0 3.34 0.9 0 0 -3.43c0,-0.33 0.93,-0.72 1.26,-0.72 1,0 0.9,0.73 0.9,1.72 -0,2.71 -0.25,2.44 0.9,2.44 0,-1.24 0.2,-3.65 -0.35,-4.43 -0.21,-0.29 -0.72,-0.53 -1.18,-0.53 -0.84,0 -1.3,0.47 -1.81,0.81 -0.2,-0.74 -1.22,-1.02 -2.14,-0.61 -0.35,0.16 -0.4,0.25 -0.66,0.43z"/>
     <path class="fil0" d="M217.5 53.56l0 1.17 -0.54 0 0 0.72 0.54 0c0,0.9 -0.13,2.99 0.27,3.61 0.53,0.83 1.74,0.46 2.26,0.45l0 -0.81c-1.95,0.45 -1.63,0.07 -1.63,-3.25l1.63 0 0 -0.72 -1.63 0c0,-1.61 0.14,-1.44 -0.63,-1.44 -0.21,0 -0.27,0.06 -0.27,0.27z"/>
    </g>
   </g>
  </g>
  <path class="fil2" d="M21.93 0l233.93 0c12.06,0 21.93,9.87 21.93,21.93l0 107.84c0,12.06 -9.87,21.93 -21.93,21.93l-233.93 0c-12.06,0 -21.93,-9.87 -21.93,-21.93l0 -107.84c0,-12.06 9.87,-21.93 21.93,-21.93z"/>
 </g>
</svg>
