<?xml version="1.0" encoding="UTF-8"?>
<!DOCTYPE svg PUBLIC "-//W3C//DTD SVG 1.1//EN" "http://www.w3.org/Graphics/SVG/1.1/DTD/svg11.dtd">
<!-- Creator: CorelDRAW 2021 (64-Bit) -->
<svg xmlns="http://www.w3.org/2000/svg" xml:space="preserve" width="42.5146mm" height="23.2172mm" version="1.1" style="shape-rendering:geometricPrecision; text-rendering:geometricPrecision; image-rendering:optimizeQuality; fill-rule:evenodd; clip-rule:evenodd"
viewBox="0 0 218.05 119.08"
 xmlns:xlink="http://www.w3.org/1999/xlink"
 xmlns:xodm="http://www.corel.com/coreldraw/odm/2003">
 <defs>
  <style type="text/css">
   <![CDATA[
    .fil2 {fill:none}
    .fil0 {fill:#1DC677}
    .fil1 {fill:white}
   ]]>
  </style>
   <clipPath id="id0">
    <path d="M17.22 0l183.62 0c9.47,0 17.22,7.75 17.22,17.22l0 84.64c0,9.47 -7.75,17.22 -17.22,17.22l-183.62 0c-9.47,0 -17.22,-7.75 -17.22,-17.22l0 -84.64c0,-9.47 7.75,-17.22 17.22,-17.22z"/>
   </clipPath>
 </defs>
 <g id="Layer_x0020_1">
  <metadata id="CorelCorpID_0Corel-Layer"/>
  <path class="fil0" d="M17.22 0l183.62 0c9.47,0 17.22,7.75 17.22,17.22l0 84.64c0,9.47 -7.75,17.22 -17.22,17.22l-183.62 0c-9.47,0 -17.22,-7.75 -17.22,-17.22l0 -84.64c0,-9.47 7.75,-17.22 17.22,-17.22z"/>
  <g style="clip-path:url(#id0)">
   <g id="_1661012375200">
    <path id="_1" class="fil1" d="M123.14 63.84c0,-1.27 0.27,-2.14 0.67,-3.24 0.09,-0.25 0.2,-0.42 0.31,-0.66 0.2,-0.45 1.14,-1.84 1.15,-1.85 0.17,0.09 0.11,0.06 0.23,0.2 0.43,0.51 0.99,1.52 1.25,2.14 0.75,1.78 1.01,4.27 0.26,6.11 -0.59,1.44 -2,1.66 -2.83,0.87 -0.11,-0.11 -0.25,-0.3 -0.34,-0.43 -0.11,-0.16 -0.18,-0.33 -0.25,-0.52 -0.27,-0.67 -0.43,-1.68 -0.43,-2.61zm-29.86 -24.3c0,1.75 1.13,3.47 2.66,4.15 2.33,1.04 4.92,0.07 6.01,-2.11 0.68,-1.36 0.63,-3.04 -0.15,-4.33l-0.44 -0.62c-0.43,-0.47 -0.88,-0.9 -1.49,-1.17 -1.03,-0.46 -1.22,-0.46 -2.29,-0.46 -1.17,0 -2.26,0.65 -3.01,1.39 -0.39,0.38 -0.64,0.8 -0.89,1.33 -0.23,0.49 -0.4,1.27 -0.4,1.82zm0.68 8.74l0 30.44c0,0.11 0.03,0.14 0.15,0.14l7.49 0 0 -30.73 -7.49 0c-0.11,0 -0.15,0.03 -0.15,0.15zm-62.76 14.74c0,2.46 0.14,3.81 0.88,6.03 0.61,1.83 1.45,3.23 2.62,4.72 0.84,1.07 2.24,2.25 3.4,2.98 0.2,0.12 0.4,0.25 0.61,0.36 1.33,0.7 1.36,0.67 2.7,1.21 0.23,0.09 0.48,0.16 0.73,0.23 3.22,0.93 6.95,1.01 10.14,0.13 0.26,-0.07 0.49,-0.12 0.72,-0.2 1.42,-0.48 1.91,-0.62 3.31,-1.38 0.76,-0.41 1.06,-0.64 1.72,-1.09 0.17,-0.11 0.39,-0.35 0.57,-0.4l0 -7.34c-0.17,0.05 -0.36,0.24 -0.51,0.36 -0.18,0.14 -0.32,0.24 -0.5,0.37 -0.48,0.36 -1.58,1.07 -2.16,1.36 -2.03,1.03 -4.52,1.96 -6.88,1.96 -1.82,0 -2.89,-0.1 -4.48,-0.79 -3.64,-1.57 -5.23,-4.83 -5.23,-8.68 0,-1.98 0.75,-4.23 2.02,-5.66l0.48 -0.53c0.12,-0.11 0.17,-0.12 0.29,-0.24 0.46,-0.45 1.27,-0.95 1.86,-1.23 2.97,-1.38 5.75,-0.74 8.69,0.12 1.32,0.39 2.99,0.83 4.63,0.83l1.64 -0.1c0.18,-0.01 0.39,-0.01 0.39,-0.19l0 -6.72c0,-0.19 -0.25,-0.13 -0.72,-0.09 -2.36,0.19 -3.99,-0.25 -6.18,-0.68 -0.91,-0.18 -2.17,-0.44 -3.14,-0.53 -1.51,-0.15 -2.26,-0.17 -3.87,-0.04 -1.68,0.14 -3.11,0.57 -4.63,1.17 -0.57,0.23 -0.83,0.39 -1.3,0.63 -0.8,0.4 -1.92,1.17 -2.59,1.76 -0.1,0.08 -0.14,0.16 -0.24,0.24 -0.83,0.69 -1.39,1.42 -2.03,2.27 -0.33,0.43 -0.65,1.01 -0.93,1.48 -1.2,2 -2,5.32 -2,7.66zm132.09 -2.9c-3.28,0 -3.79,0.06 -6.94,-0.55 -0.22,-0.04 -0.44,-0.12 -0.65,-0.12 0.1,-0.18 0.15,-0.37 0.22,-0.6 0.08,-0.25 0.14,-0.36 0.23,-0.59 1.19,-2.86 3.86,-4.56 7.23,-4.56 1.77,0 3.74,0.29 4.62,1.75 0.85,1.4 0.5,3.35 -1.19,4.05 -1.04,0.43 -2.33,0.62 -3.53,0.62zm-15.7 3.04c0,2.51 0.12,3.91 0.89,6.26 0.49,1.48 1.67,3.59 2.72,4.67 0.1,0.1 0.18,0.16 0.26,0.27l1 0.98c0.61,0.49 1.01,0.83 1.69,1.26 0.22,0.14 0.41,0.26 0.64,0.38 2.17,1.12 3.21,1.56 5.9,2.02 1.42,0.24 3.01,0.33 4.49,0.25 0.33,-0.02 0.61,0 0.88,-0.03 0.57,-0.08 0.93,-0.07 1.66,-0.18 1.14,-0.18 2,-0.39 3.01,-0.67 0.67,-0.19 2.01,-0.7 2.62,-1 0.41,-0.2 0.79,-0.41 1.19,-0.64l1.13 -0.71 0 -7.3 -2.04 1.49c-0.96,0.64 -2.45,1.34 -3.56,1.71l-1.4 0.39c-2.6,0.52 -5.31,0.57 -7.88,-0.15 -1.15,-0.32 -2.78,-1.01 -3.56,-1.8 -0.21,-0.21 -0.36,-0.27 -0.54,-0.52l-0.48 -0.59c-0.15,-0.2 -0.29,-0.41 -0.41,-0.65 -0.64,-1.26 -0.76,-2.07 -0.76,-3.54 0.25,0.02 0.64,0.2 0.94,0.27 1.16,0.29 1.82,0.46 3.08,0.64 3.16,0.44 6.57,0.56 9.67,-0.21 0.69,-0.17 1.21,-0.39 1.85,-0.66 1.07,-0.46 2.23,-1.24 3,-2.08 0.87,-0.94 1.44,-1.99 1.85,-3.22 0.83,-2.46 0.22,-5.46 -1.19,-7.51 -0.43,-0.61 -0.71,-0.91 -1.26,-1.44l-0.37 -0.31c-0.13,-0.11 -0.25,-0.21 -0.38,-0.3 -1.87,-1.27 -3.52,-1.91 -5.83,-2.29 -3.71,-0.61 -7.48,0.08 -10.54,1.6 -1.58,0.79 -2.77,1.73 -4,2.96l-0.92 1.06c-0.15,0.19 -0.3,0.37 -0.44,0.57 -0.25,0.35 -0.58,0.83 -0.77,1.21 -0.92,1.79 -1.16,2.23 -1.67,4.27 -0.24,0.97 -0.45,2.39 -0.45,3.56zm-84.65 15.7l7.25 0c0.22,0 0.15,-0.3 0.15,-0.53l0 -10.44c0,-3.7 0,-7.41 0,-11.11l1.75 -0.76c2.96,-1.19 7.16,-2.33 9.28,0.88 0.7,1.06 0.9,2.44 0.9,4.18l0 17.78 7.25 0c0.11,0 0.15,-0.03 0.15,-0.14l-0.05 -19.76c0,-0.66 -0.24,-2.58 -0.39,-3.19 -0.09,-0.39 -0.16,-0.74 -0.27,-1.13 -0.44,-1.54 -1.38,-3.57 -2.61,-4.59 -0.5,-0.42 -0.48,-0.51 -1.22,-0.95 -2.86,-1.7 -6.03,-1.57 -9.21,-0.85 -1.59,0.36 -3.05,0.87 -4.51,1.53 -0.19,0.09 -0.35,0.15 -0.53,0.24 -0.16,0.08 -0.35,0.2 -0.53,0.24l0 -14.64c0,-0.45 0.09,-0.87 -0.15,-0.87l-7.25 0 0 44.11zm43 -19.57l0 19.57 7.39 0 0 -18.75c0,-2 0.54,-3.79 2.07,-4.75 1.11,-0.69 2.39,-0.65 3.55,-0.1 0.36,0.17 0.99,0.63 1.19,0.93l-0.93 1.54 -0.77 1.69c-0.45,1.21 -0.86,2.58 -0.86,4.21 0,4.85 2.13,9.86 7.59,9.86 1.17,0 2.18,-0.18 3.07,-0.55 2.46,-1.03 3.83,-3.49 4.36,-5.98 0.69,-3.27 0.41,-5.69 -0.92,-8.57l-0.45 -0.85c-0.31,-0.59 -0.48,-0.8 -0.84,-1.34l0.55 -0.51c0.19,-0.15 0.44,-0.3 0.66,-0.41 1.67,-0.82 3.51,-0.4 4.54,0.97 0.9,1.22 1.12,2.5 1.12,4.39l0 18.21 7.59 0 0 -20.1c0,-1.66 -0.31,-3.26 -0.72,-4.5 -0.43,-1.3 -1.21,-2.73 -2.19,-3.7l-1.07 -0.91c-0.6,-0.41 -0.98,-0.67 -1.69,-0.97 -2.42,-1.03 -4.83,-1.18 -7.41,-0.58 -1.17,0.27 -2.55,0.92 -3.57,1.6 -0.45,0.3 -1.51,1.11 -1.94,1.54 -0.23,0.23 -0.65,0.7 -0.88,0.86 -0.15,-0.22 -0.61,-0.64 -0.83,-0.86 -0.08,-0.08 -0.13,-0.14 -0.22,-0.22l-0.71 -0.6c-2.27,-1.79 -4.64,-2.68 -7.66,-2.68 -2.94,0 -4.65,0.19 -6.74,1.81 -1.73,1.34 -2.67,3.94 -3,6.08 -0.14,0.9 -0.19,1.48 -0.21,2.4 -0.01,0.25 -0.05,0.3 -0.05,0.58 -0,0.23 0,0.45 0,0.68z"/>
   </g>
  </g>
  <path class="fil2" d="M17.22 0l183.62 0c9.47,0 17.22,7.75 17.22,17.22l0 84.64c0,9.47 -7.75,17.22 -17.22,17.22l-183.62 0c-9.47,0 -17.22,-7.75 -17.22,-17.22l0 -84.64c0,-9.47 7.75,-17.22 17.22,-17.22z"/>
 </g>
</svg>
